<?xml version="1.0" standalone="no"?><!DOCTYPE svg PUBLIC "-//W3C//DTD SVG 1.1//EN" "http://www.w3.org/Graphics/SVG/1.1/DTD/svg11.dtd"><svg t="1615883510717" class="icon" viewBox="0 0 1024 1024" version="1.1" xmlns="http://www.w3.org/2000/svg" p-id="6037" xmlns:xlink="http://www.w3.org/1999/xlink" width="200" height="200"><defs><style type="text/css"></style></defs><path d="M511.445333 64c22.570667 0 45.482667 1.706667 68.48 5.248 244.48 37.504 412.330667 266.154667 374.826667 510.677333-33.962667 221.525333-224.768 380.074667-442.197333 380.074667-22.570667 0-45.482667-1.706667-68.48-5.248-244.48-37.504-412.330667-266.154667-374.826667-510.677333C103.210667 222.549333 293.973333 64 511.445333 64z m162.645334 700.074667l-3.626667 6.997333a545.408 545.408 0 0 1-86.485333 118.186667 384.725333 384.725333 0 0 0 165.034666-75.221334l11.050667-9.045333a477.397333 477.397333 0 0 0-85.973333-40.96zM349.866667 764.16l-10.069334 3.626667a477.866667 477.866667 0 0 0-75.904 37.205333 380.544 380.544 0 0 0 172.928 83.541333l3.072 0.554667A545.28 545.28 0 0 1 349.866667 764.16z m162.133333-28.16c-33.621333 0-66.730667 3.413333-98.986667 10.24A480.426667 480.426667 0 0 0 512 869.717333c39.637333-35.413333 73.088-77.141333 99.029333-123.434666-32.341333-6.826667-65.450667-10.282667-99.029333-10.282667z m382.592-192h-159.530667l-0.128 1.962667a541.269333 541.269333 0 0 1-34.432 159.701333c37.205333 13.653333 72.661333 31.402667 105.898667 52.821333a382.464 382.464 0 0 0 88.234667-214.442666z m-605.653333 0H129.28a382.72 382.72 0 0 0 88.362667 214.485333 537.173333 537.173333 0 0 1 105.813333-52.906666 539.776 539.776 0 0 1-32.981333-141.226667l-1.536-20.352z m381.994666 0h-317.866666l1.28 15.786667a476.586667 476.586667 0 0 0 30.592 127.274666 545.066667 545.066667 0 0 1 254.122666-0.128 472.746667 472.746667 0 0 0 30.293334-124.416l1.578666-18.474666zM217.6 265.557333l-1.792 2.048a381.738667 381.738667 0 0 0-83.285333 186.24c-1.322667 8.746667-2.389333 17.493333-3.114667 26.197334h159.530667l0.128-1.962667c3.413333-55.168 15.061333-108.885333 34.432-159.701333A536.32 536.32 0 0 1 217.6 265.514667z m421.461333 71.424l-10.026666 2.432c-38.144 8.362667-77.312 12.629333-117.034667 12.629334-43.221333 0-85.76-5.034667-127.018667-14.933334a473.813333 473.813333 0 0 0-31.914666 142.933334h317.824l-1.237334-15.786667a476.586667 476.586667 0 0 0-30.592-127.274667z m167.253334-71.466666l-7.509334 4.864c-31.018667 19.285333-63.914667 35.413333-98.261333 48.085333a541.44 541.44 0 0 1 34.389333 159.573333l0.085334 2.005334h159.701333a379.690667 379.690667 0 0 0-6.570667-45.397334l-3.84-16.64a382.72 382.72 0 0 0-62.805333-133.12l-7.466667-9.813333-7.68-9.557333z m-294.272-111.232l-4.394667 3.925333a481.834667 481.834667 0 0 0-94.72 119.552 481.877333 481.877333 0 0 0 198.058667 0.042667A480.426667 480.426667 0 0 0 512 154.24z m-72.021334-19.456l-13.226666 2.773333a384.896 384.896 0 0 0-151.68 72.277333l-11.178667 9.173334c27.178667 16.469333 55.978667 30.165333 85.973333 40.96a541.653333 541.653333 0 0 1 76.970667-111.018667l13.141333-14.165333z m234.112 125.013333l7.893334-2.773333c27.178667-10.282667 53.290667-23.04 78.08-38.016a380.586667 380.586667 0 0 0-172.928-83.498667l-3.072-0.597333A545.28 545.28 0 0 1 674.133333 259.84z" p-id="6038"></path></svg>